<?xml version="1.0" encoding="UTF-8"?><svg id="a" xmlns="http://www.w3.org/2000/svg" viewBox="0 0 364.46 383.4"><defs><style>.b{fill:#fff;}</style></defs><path class="b" d="M316.62,383.4H26.19c-16.15-4.62-24.98-15.92-26.19-32.57L.33,109.39c.61-1.55,1.81-2.76,3.37-3.37l307.34-.36c13.64,1.02,26.16,9.92,29.75,23.4,2.62,9.83,2.33,45.92,1.32,57.13-.33,3.62-1.01,5.14-4.89,5.59-22.12,2.57-49.18-1.84-71.9-.04-14.51,1.15-28.05,12.42-29.53,27.36-1.16,11.66-1.35,41.6.19,52.95,2.04,15.03,16.55,24.91,30.88,26.01,22.92,1.76,47.99-1.26,71.14-.03,1.66-.03,2.79,1.01,3.69,2.3-.32,17.25,1.77,36.47.42,53.53-1.17,14.82-11.61,25.52-25.48,29.54Z"/><path class="b" d="M240.09.34c17.02-2.32,33.48,7.36,37.27,24.47,2.21,9.96,2.28,43.65,1.08,54.31-.57,5.03-2.26,5.94-7.08,6.39H54.97c-2.93.06-5.98-1.22-4.48-4.54L230.57,3.54c3.08-1.07,6.27-2.75,9.53-3.2Z"/><path class="b" d="M259.24,273.86c-1.86-1.86-2.97-5.76-3.24-8.36-1.02-9.99-.94-31.1-.04-41.19.55-6.2,3.55-10.98,10.1-11.61,27.89-2.68,60.04,2.1,88.38.02,6.54.92,8.85,6.36,9.37,12.34.88,10.21.88,29.5-.04,39.69-.65,7.23-3.99,11.73-11.56,12.39-26.95,2.38-57.33-1.87-84.65,0-2.6-.09-6.5-1.46-8.32-3.28Z"/></svg>