<?xml version="1.0" encoding="UTF-8"?><svg id="a" xmlns="http://www.w3.org/2000/svg" viewBox="0 0 697.32 697.15"><defs><style>.b{fill:#fff;}</style></defs><path class="b" d="M579.74,0l-63.28,63.9c-4.22,5.48-5.37,8.03-4.12,15.06,2.28,12.81,18.4,60.28,24.17,72.41,3.07,6.46,5.25,7.41,11.59,10.18,14.1,6.16,53.9,20.17,68.29,22.83,5.52,1.02,10.87,1.64,15.06-2.75l65.26-64.64v25.16c0,4.11-4.54,19.01-6.18,23.75-16.99,49.33-67.25,84.33-119.7,83.08-12.93-.31-29.32-8.33-39.94-.6l-279.67,279.36c-8.86,9.08-1.56,21.08-.67,32.02,9.2,113.54-123.69,180.97-208.73,105.36-23.06-20.51-36.29-48.61-41.52-78.85.7-9.63-.96-20.47,0-29.92,6.55-64.63,68.84-114.03,132.67-110.23,8.73.52,24.41,6.05,31.57,3.1L449.79,164.52c5.11-8.15-1.66-29.32-1.71-40.06-.26-60.34,47.66-118.3,108.54-124.46h23.12ZM477.05,202.69L206.29,473.35c-.91,1.03-.54,1.65,0,2.7.47.9,13.47,13.91,14.37,14.37L494.03,219.67l-16.98-16.98ZM156.45,619.95l28.79-49.37c-8.73-13.2-15.97-30.19-25.24-42.71-3.73-5.04-3.59-6.17-10.76-6.92-5.83-.61-49.64-.66-52.37.67l-29.4,48.98,29.4,48.98,59.58.38Z"/><path class="b" d="M460.91,352.38c2.38-.42,17.55,16.78,20.57,19.61-24.48,32.91,5.89,75.14,45.21,59.87,3.66-1.42,6.63-6.14,10.83-4.13l141.36,141.78-105.46,107.76-144.08-142.75c1.07-5.5,5.34-9.61,6.95-16.23,7.07-29.1-17.41-53.33-46.51-46.51-4.3,1.01-13.88,7.36-15.84,6.86-3.39-.86-15.75-16.75-19.98-19.58l106.94-106.68ZM494.73,476.09c-2.95,4.39-13.01,11.01-15.04,14.95-.54,1.05-.91,1.67,0,2.7l123.17,120.47,14.95-15.04-123.07-123.07Z"/><path class="b" d="M594.71,690.96l98.64-96.58c19.72,61.95-37.28,117.03-98.64,96.58Z"/><path class="b" d="M41.99,2.86l73.19,42.1,14.33,49.6,178.18,178.17-31.27,31.37-3.43-.68L97.57,127.85c-15.84-8.08-35.17-7.84-51.08-15.57L5.78,40.08,41.99,2.86Z"/></svg>