<?xml version="1.0" encoding="UTF-8"?><svg id="a" xmlns="http://www.w3.org/2000/svg" viewBox="0 0 383.71 335.69"><defs><style>.b{fill:#fff;}</style></defs><path class="b" d="M383.71,328.01c-4.8,10.13-18.42,10.55-22.25-.58-2.03-5.89-2.9-13.42-4.91-19.79-10.46-33.02-34.69-64.81-63.17-84.29-29.7-20.31-66.11-30.63-102.04-31.58v63.25c0,.8-2.28,4.39-3.07,5.16-4.2,4.12-10.37,4.34-15.14,1.07L5.01,141.19c-9.45-9.37-4.1-15.4,4.19-21.88C61.23,78.66,119.58,43.32,172.08,2.98c6.88-5.65,16.91-3.02,19.21,5.83l.09,63.91c59.11,6.23,113.43,36.17,147.59,84.83,28.58,40.71,41.74,91.5,43.97,140.95l.78,1.81v27.7Z"/></svg>