<?xml version="1.0" encoding="UTF-8"?>
<svg id="Capa_2" data-name="Capa 2" xmlns="http://www.w3.org/2000/svg" viewBox="0 0 122.52 149.31">
  <defs>
    <style>
      .cls-1 {
        fill: #fff;
      }
    </style>
  </defs>
  <g id="Capa_1-2" data-name="Capa 1">
    <path class="cls-1" d="M40.53,149.31c-2.69-.82-5.33-1.69-7.47-3.67-2.81-2.58-4.4-5.74-4.78-9.52-.08-.77-.06-1.55-.06-2.33,0-19.97,0-39.95,0-59.92,0-.57,0-1.15,0-1.63h10.77v1.93c0,19.88,0,39.75,0,59.63,0,.77-.01,1.58,.21,2.31,.45,1.48,1.9,2.42,3.61,2.42,21.68,0,43.36,.01,65.03,0,2.41,0,3.84-1.57,3.84-4.14,0-13.56,0-27.12,0-40.67,0-18.17,0-36.35,0-54.52,0-3.52-1.27-4.77-4.83-4.77-10.84,0-21.68,0-32.52,0-.53,0-1.05,0-1.53,0-.53-3.63-1.04-7.15-1.57-10.78,.48,0,1.01,0,1.54,0,11.47,0,22.94,0,34.41,0,9.1,0,15.28,6.18,15.28,15.27,0,31.68-.05,63.37,.04,95.05,.02,7.34-4.65,13.86-12.19,15.16-.14,.02-.26,.13-.39,.19H40.53Z"/>
    <path class="cls-1" d="M67.73,33.8c.09,18.61-15,33.78-33.73,33.91C15.43,67.84,.16,52.71,0,34.02-.16,15.45,15.17,.04,33.85,0c18.61-.04,33.79,15.1,33.88,33.8Zm-33.78,26.78c14.75-.12,26.78-12.23,26.64-26.81-.14-14.77-12.2-26.69-26.85-26.55-14.81,.14-26.68,12.16-26.52,26.83,.16,14.72,12.18,26.65,26.73,26.53Z"/>
    <path class="cls-1" d="M76.23,73.77c-6.31,0-12.62,.05-18.93-.05-1.02-.02-2.26-.43-3.02-1.09-2.06-1.79-1.14-5.11,1.52-5.88,.5-.15,1.05-.19,1.58-.19,12.52-.01,25.05-.01,37.57,0,.71,0,1.48,.09,2.13,.36,1.55,.65,2.37,2.31,2.08,3.93-.3,1.63-1.84,2.88-3.7,2.9-4.71,.03-9.42,.01-14.13,.01-1.7,0-3.4,0-5.1,0Z"/>
    <path class="cls-1" d="M76.24,88.36c6.42,0,12.83-.01,19.25,0,1.83,0,3.31,1.15,3.68,2.73,.38,1.63-.33,3.26-1.91,4-.63,.3-1.4,.44-2.1,.44-12.59,.03-25.18,.01-37.77,.03-1.77,0-3.16-.65-3.88-2.3-.57-1.3-.43-2.72,.68-3.61,.84-.67,2.04-1.22,3.09-1.24,6.32-.11,12.64-.06,18.96-.06Z"/>
    <path class="cls-1" d="M76.41,111.06c6.42,0,12.83-.02,19.25,.01,1.8,0,3.25,1.24,3.55,2.86,.31,1.66-.47,3.22-2.07,3.92-.56,.24-1.22,.32-1.84,.32-12.69,.02-25.37,.02-38.06,0-2.39,0-3.96-1.44-3.98-3.52-.02-2.14,1.59-3.6,4.05-3.6,6.37-.01,12.73,0,19.1,0h0Z"/>
    <path class="cls-1" d="M37.48,30.3c.69,0,1.21,0,1.73,0,4.85,0,9.71-.01,14.56,0,2.35,0,3.96,1.45,3.98,3.52,.02,2.09-1.52,3.6-3.89,3.61-6.55,.04-13.11,.04-19.66,0-2.51-.02-3.89-1.5-3.9-4.06-.01-5.58-.01-11.16,0-16.75,0-2.33,1.46-3.99,3.5-4.05,2.06-.06,3.64,1.62,3.67,4.04,.04,3.98,.01,7.96,.01,11.94,0,.52,0,1.04,0,1.73Z"/>
  </g>
</svg>