<?xml version="1.0" encoding="UTF-8"?><svg id="a" xmlns="http://www.w3.org/2000/svg" viewBox="0 0 383.28 383.28"><defs><style>.b{fill:#fff;}</style></defs><path class="b" d="M348.1,0c2.82,1.4,4.91,2.09,7.49,4.11,5.22,4.08,19.1,17.98,23.22,23.19,2.08,2.64,2.91,5.04,4.47,7.88v9.73c-4.81,10.95-15.52,17.81-23.21,26.62l-1.89-.37-46.71-46.93c-.18-.91.61-1.23,1.04-1.79,3.05-3.97,13.6-14.36,17.61-17.58,2.66-2.14,5.28-3.32,8.24-4.86h9.73Z"/><path class="b" d="M242.55,61.38l-104.06,104.4-4.61,6.62c-4.94,17.94-15.12,38-18.99,55.86-5.14,23.7,14.39,43.17,38.14,40.38,8.03-.94,50.76-15.5,58.32-19.52,2.07-1.1,4.27-2.88,6.15-4.33l104.4-104.06v208.47c0,14.36-20.94,33.81-35.56,34.05l-250.03.03c-18.91-2.2-34.02-17.42-36.3-36.3L.03,96.94c.24-14.62,19.69-35.56,34.05-35.56h208.47Z"/><path class="b" d="M295.43,39.73l47.85,48.59-140.46,140.29c-3.92,2.82-46.33,17.29-52.14,18.22-9.69,1.55-15.8-4.52-14.24-14.24.93-5.81,15.41-48.21,18.22-52.14L295.43,39.73Z"/></svg>