<?xml version="1.0" encoding="UTF-8"?><svg id="a" xmlns="http://www.w3.org/2000/svg" viewBox="0 0 352.86 352.52"><defs><style>.b{fill:#fff;}</style></defs><path class="b" d="M164.65.37c141.76-8.99,236.64,145.61,162.15,267.69-65.9,108.02-220.41,113.41-294.03,10.46C-47.36,166.47,28.22,9.03,164.65.37ZM175.87,32.54c-104.35.41-173.56,108.73-130.21,203.91,45.14,99.1,182.41,113.06,246.69,24.86,69.34-95.15.93-229.23-116.48-228.77Z"/><path class="b" d="M192.5,160.34h52.02c1.55,0,7.01,3.91,8.19,5.28,4.51,5.24,5.12,14.09,1.17,19.8-1.47,2.12-7.68,7.11-10.11,7.11h-51.27v51.27c0,.29-1.71,3.93-2.09,4.64-5.75,10.82-22.29,10.84-28.18.17-.4-.72-1.92-3.67-1.92-4.07v-52.02h-52.77c-.4,0-3.35-1.52-4.07-1.92-10.45-5.73-11.06-21.38-1.05-27.9.65-.43,4.79-2.37,5.12-2.37h52.77v-52.77c0-.28,2.23-4.21,2.67-4.82,6.91-9.79,21.83-9.04,27.6,1.5.4.73,1.92,3.67,1.92,4.07v52.02Z"/></svg>