<?xml version="1.0" encoding="UTF-8"?>
<svg id="Capa_2" data-name="Capa 2" xmlns="http://www.w3.org/2000/svg" viewBox="0 0 442.69 223.89">
  <defs>
    <style>
      .cls-1 {
        fill: #fff;
      }
    </style>
  </defs>
  <g id="a">
    <path class="cls-1" d="M125.03,223.89H10.34c-6.38-1.82-9.86-6.29-10.34-12.86L.13,115.69c.24-.61,.71-1.09,1.33-1.33l121.36-.14c5.39,.4,10.33,3.92,11.75,9.24,1.03,3.88,.92,18.13,.52,22.56-.13,1.43-.4,2.03-1.93,2.21-8.73,1.01-19.42-.73-28.39-.02-5.73,.45-11.08,4.9-11.66,10.8-.46,4.6-.53,16.43,.08,20.91,.81,5.94,6.54,9.84,12.19,10.27,9.05,.7,18.95-.5,28.09-.01,.66-.01,1.1,.4,1.46,.91-.13,6.81,.7,14.4,.17,21.14-.46,5.85-4.58,10.08-10.06,11.66h0Z"/>
    <path class="cls-1" d="M94.81,72.63c6.72-.92,13.22,2.91,14.72,9.66,.87,3.93,.9,17.24,.43,21.45-.23,1.99-.89,2.35-2.8,2.52H21.71c-1.16,.02-2.36-.48-1.77-1.79l71.11-30.58c1.22-.42,2.48-1.09,3.76-1.26h0Z"/>
    <path class="cls-1" d="M102.37,180.64c-.73-.73-1.17-2.27-1.28-3.3-.4-3.94-.37-12.28-.02-16.27,.22-2.45,1.4-4.34,3.99-4.58,11.01-1.06,23.71,.83,34.9,0,2.58,.36,3.49,2.51,3.7,4.87,.35,4.03,.35,11.65-.02,15.67-.26,2.86-1.58,4.63-4.56,4.89-10.64,.94-22.64-.74-33.43,0-1.03-.04-2.57-.58-3.29-1.3h0Z"/>
    <path class="cls-1" d="M307.64,207.91c36.59-40.26,73.43-80.79,110.63-121.72,.11,1.06,.2,1.52,.2,1.98,0,37.02-.07,74.05,.02,111.07,.03,12.61-10.23,24.64-25.22,24.64-35.54,.01-71.08,0-106.62,0-22.84,0-45.68,.02-68.52-.01-11.93-.02-21.36-7.05-24.52-18.34-.6-2.15-.97-4.44-.97-6.67-.05-50.22-.06-100.44-.03-150.66,0-14.16,11.04-24.23,22.47-24.85,2.64-.14,5.29-.46,7.93-.46,45.68-.03,91.36-.02,137.05-.02h3.99c-20.17,22.2-39.91,43.92-59.81,65.82-12.64-12.65-25.07-25.09-37.16-37.19-19.6,19.6-38.91,38.92-57.89,57.9,32.41,32.42,65.3,65.31,98.48,98.5Z"/>
    <path class="cls-1" d="M304.88,126.62C343.51,84.13,381.68,42.13,419.98,0c7.61,6.93,15.02,13.66,22.7,20.65-45.55,50.12-90.94,100.06-136.15,149.81-20.58-20.61-40.93-40.99-61.12-61.21,6.83-6.82,13.9-13.88,21.09-21.06,12.53,12.55,25.23,25.28,38.38,38.44Z"/>
  </g>
</svg>