<?xml version="1.0" encoding="UTF-8"?><svg id="a" xmlns="http://www.w3.org/2000/svg" viewBox="0 0 409.6 409.6"><defs><style>.b{fill:#fff;}</style></defs><path class="b" d="M96.61,409.6h-1.6c-.51-1.36-1.79-1.67-2.91-2.28-26.5-14.39-58.74-30.35-83.57-46.58-2.14-1.4-7.74-5.62-7.74-8.23v-116.17l95.42,47.9.39,125.37Z"/><path class="b" d="M409.6,352.91c-2.12,3.78-4.21,5.51-7.74,7.83-24.76,16.23-57.1,32.21-83.57,46.58-1.12.61-2.4.92-2.91,2.28h-1.6l.39-125.37,95.42-47.9v116.57Z"/><polygon class="b" points="122.96 409.6 121.36 409.6 121.49 284.77 193.22 248.32 193.22 368.48 122.96 409.6"/><polygon class="b" points="289.04 409.6 287.44 409.6 217.18 368.48 217.18 248.32 288.91 284.77 289.04 409.6"/><path class="b" d="M301.01,48.7l-95.47,47.11c-32.44-14.63-63.75-32.19-96.15-47.11.95-1.66,3.16-2.67,4.77-3.6,14.03-8.05,30.85-15.8,45.51-23.16,10.56-5.3,30.95-17.54,40.96-20.52,2.95-.88,6.2-1.1,9.14,0,27.81,15.5,58.99,27.92,86.47,43.68,1.62.93,3.82,1.94,4.77,3.6Z"/><polygon class="b" points="193.22 209.99 97.41 161.68 97.41 68.67 193.22 116.97 193.22 209.99"/><polygon class="b" points="217.18 209.99 217.18 116.97 312.99 68.67 312.99 161.68 217.18 209.99"/><polygon class="b" points="178.05 228.37 177.02 230.14 111.55 262.87 109.05 263.48 13.58 215.98 82.64 181.3 178.05 228.37"/><path class="b" d="M396.82,216.37l-95.47,47.11c-23.38-10.11-45.65-23.13-69-33.54l1.03-1.78,94.39-46.86,67.23,33.32,1.84,1.74Z"/></svg>