<?xml version="1.0" encoding="UTF-8"?><svg id="a" xmlns="http://www.w3.org/2000/svg" viewBox="0 0 368.09 293.46"><defs><style>.b{fill:#fff;}</style></defs><path class="b" d="M0,145.43l2.52-2.87C56.83,100.29,107.71,51.58,162.06,9.64c13.55-10.46,25.25-13.83,40.21-2.88l54.27,45.26V7.82c0-3.2,3.69-6.47,6.81-6.84,14.17-1.68,31.52,1.31,46.04-.02,2.59.28,4.49,2.25,5.68,4.38l.53,95.76,49.8,41.46c2.97,3.1,3.46,6.32,1.56,10.17-1.02,2.08-12.48,15.96-14.38,17.6-4.84,4.17-9.46,2.79-13.75-1.21L184.28,40.48l-2.16.72L24.97,172.2c-3.4,1.37-6.56.54-9.33-1.6L0,151.9v-6.47Z"/><path class="b" d="M64.31,293.46c-5.2-.77-11.59-7.11-11.86-12.57l.16-113.75L183.7,59.25l131.61,107.89.16,113.75c.29,4.82-7.54,12.57-11.86,12.57h-90.9v-87.67h-57.49v87.67h-90.9Z"/></svg>