<?xml version="1.0" encoding="UTF-8"?><svg id="a" xmlns="http://www.w3.org/2000/svg" viewBox="0 0 374.33 374.32"><defs><style>.b{fill:#fff;}</style></defs><path class="b" d="M122.61.22l220.65-.22c16.33,1.86,29.21,14.74,31.06,31.06v217.88c-1.35,16.63-14.54,29.93-31.06,31.81H125.37c-16.5-1.31-29.98-14.6-31.81-31.06l.03-219.34c2.22-15.37,13.76-27.31,29.01-30.13Z"/><path class="b" d="M70.39,93.59v156.82c0,25.1,28.43,53.52,53.52,53.52h156.82v41.54c0,12.12-17.95,28.68-30.32,28.81l-219.34.03c-16.23-1.84-29.24-14.79-31.06-31.06L.03,123.92c.13-12.38,16.69-30.32,28.81-30.32h41.54Z"/></svg>