<?xml version="1.0" encoding="UTF-8"?><svg id="a" xmlns="http://www.w3.org/2000/svg" viewBox="0 0 344.87 383.41"><defs><style>.b{fill:#fff;}</style></defs><path class="b" d="M176.07,0l162.67,91.45c7.72,5.48,7.89,13.86.46,19.65-52.7,27.61-103.81,61.1-156.64,88.13-9.7,4.96-10.77,4.96-20.47,0-52.83-27.04-103.93-60.54-156.64-88.13-7.43-5.79-7.26-14.17.46-19.65L168.58,0h7.49Z"/><path class="b" d="M45.58,249.42c37.58,20.14,74.54,41.53,111.74,62.38,10.56,4.74,20.01,4.45,30.48-.27l110.78-62.12,40.61,22.75c13.29,12.74.4,19.06-9.93,25.15-50.47,29.81-102.9,56.64-153.75,85.78-5.65,1.18-8.76-1.05-13.44-3.44-52.83-27.04-103.93-60.54-156.64-88.13-6.79-5.14-7.43-13.02-.82-18.68l40.94-23.41Z"/><path class="b" d="M45.63,159.56c1.26-.19,2.2.37,3.22.97l107.73,60.69c11.01,5.07,20.49,5.07,31.5,0l109.81-61.66c1.7-.25,5.01,1.9,6.69,2.74,8.67,4.35,28.38,14.5,35.37,20.02,5.25,4.14,6.04,10.92,2.3,16.42-54.86,32.62-111.12,63.35-167.07,94.17-6.39,1.56-13.44-3.83-19.08-6.84-51.75-27.66-102.29-58.14-153.35-86.94-3.89-4.66-3.48-12.17,1.12-16.14l41.75-23.43ZM71.87,194.03c-14.13,1.48-12.28,23.98,3.48,21.49,12.74-2.01,10.81-22.99-3.48-21.49ZM270.21,194.01c-8.16,1.13-12.17,10.07-7.65,17.04,3.09,4.77,10.27,6.24,14.94,3.03,9.74-6.7,3.82-21.61-7.29-20.07ZM119.75,221.71c-13.46,1.56-12.64,22.15,1.17,22.05,15.47-.12,13.16-23.71-1.17-22.05ZM223.07,221.72c-14.02,1.03-13.04,22.63,1.17,22.03s12.96-23.08-1.17-22.03ZM170.65,247.93c-11.97,1.73-11.99,19.74-.9,21.49,18.27,2.89,16.92-23.81.9-21.49Z"/></svg>