<?xml version="1.0" encoding="UTF-8"?>
<svg id="Capa_2" data-name="Capa 2" xmlns="http://www.w3.org/2000/svg" viewBox="0 0 16.48 16.47">
  <defs>
    <style>
      .cls-1 {
        fill: #fff;
      }
    </style>
  </defs>
  <g id="Capa_1-2" data-name="Capa 1">
    <path class="cls-1" d="M8.61,16.47h-.74s-.06-.01-.09-.01c-.44-.02-.88-.08-1.31-.18-1.42-.32-2.68-.96-3.76-1.94C.49,12.33-.46,9.29,.22,6.37,.98,3.09,3.66,.61,6.98,.1c1.09-.17,2.17-.12,3.24,.14,3.46,.85,5.99,3.86,6.23,7.41,.07,1.06-.04,2.1-.38,3.12-.65,1.96-1.86,3.48-3.63,4.55-1.03,.62-2.15,.99-3.34,1.11-.17,.02-.33,.03-.5,.05Zm-.32-6.55c1.01,1.01,2.02,2.02,3.02,3.02,.55-.54,1.09-1.09,1.65-1.64-1-1-2.01-2.01-3.03-3.03,1.01-1.01,2.01-2.01,3.01-3.01-.54-.54-1.08-1.08-1.63-1.63-1,1-2,2.01-3.02,3.03-1.01-1.01-2.02-2.02-3.02-3.03-.54,.55-1.09,1.09-1.63,1.64,1,1,2.01,2.01,3.03,3.03-1.01,1.01-2.01,2.01-3.01,3.01,.54,.54,1.09,1.09,1.64,1.64,1-1,2.01-2,3.02-3.02Z"/>
  </g>
</svg>