<?xml version="1.0" encoding="UTF-8"?><svg id="a" xmlns="http://www.w3.org/2000/svg" viewBox="0 0 321.93 383.43"><defs><style>.b{fill:#fff;}</style></defs><path class="b" d="M149.77,0v358.55h-73.36v16.84c0,.22-1.83,3.21-2.25,3.74-4.5,5.73-13.46,5.73-17.96,0-.42-.53-2.25-3.52-2.25-3.74v-16.84h-26.57c-11.48,0-28.15-18.3-27.35-30.28L.07,28.83C2.42,14.07,12.89,3.93,27.01,0h122.76ZM112.18,150.61c-3.8.33-7.98,3.62-9.34,7.18-1.59,4.16-1.59,21.59,0,25.74,3.59,9.37,16.89,9.43,20.5,0,1.59-4.16,1.59-21.59,0-25.74s-6.59-7.58-11.16-7.18Z"/><path class="b" d="M294.98,0c8.78,2.86,16.87,7.18,21.86,15.2,1.21,1.94,5.09,10.31,5.09,12.13v212.96h-149.71V0h122.76ZM207.99,150.61c-3.8.33-7.98,3.62-9.34,7.18-1.59,4.16-1.59,21.59,0,25.74,3.59,9.37,16.89,9.43,20.5,0,1.59-4.16,1.59-21.59,0-25.74s-6.59-7.58-11.16-7.18Z"/><path class="b" d="M321.93,262.74v68.49c0,10.11-17.21,27.32-27.32,27.32h-26.57v16.84c0,.22-1.83,3.21-2.25,3.74-4.5,5.73-13.46,5.73-17.96,0-.42-.53-2.25-3.52-2.25-3.74v-16.84h-73.36v-95.81h149.71ZM225.94,289.13c-10.98,1.68-13.97,15.8-3.97,20.8,4.74,2.37,23.57,2.32,28.22-.29,7.77-4.36,7.37-15.33-.46-19.24-4.15-2.07-18.92-2.02-23.79-1.27Z"/></svg>