<?xml version="1.0" encoding="utf-8"?>
<!-- Generator: Adobe Illustrator 26.5.0, SVG Export Plug-In . SVG Version: 6.00 Build 0)  -->
<svg version="1.1" id="Capa_2_00000169531395630396907330000004182955805410460861_"
	 xmlns="http://www.w3.org/2000/svg" xmlns:xlink="http://www.w3.org/1999/xlink" x="0px" y="0px" viewBox="0 0 709.2 454.2"
	 style="enable-background:new 0 0 709.2 454.2;" xml:space="preserve">
<style type="text/css">
	.st0{fill:#FFFFFF;}
</style>
<g id="Capa_1-2">
	<g id="Objects">
		<g>
			<ellipse class="st0" cx="354.6" cy="115.5" rx="103.4" ry="115.5"/>
			<path class="st0" d="M528.9,401.7v32.7c0,10.9-8,19.8-17.8,19.8h-313c-9.8,0-17.8-8.9-17.8-19.8v-32.7
				c0-61.7,24.8-141,97.1-155.7c23.3,19.3,44.9,27.5,77.2,27.5s56.8-8.3,76.9-27.1C506.6,262.4,528.9,344.9,528.9,401.7L528.9,401.7
				z"/>
			<ellipse class="st0" cx="125.6" cy="210.1" rx="74.5" ry="83.2"/>
			<path class="st0" d="M164.8,434.4c0,7.3,1.9,14.1,5.1,19.8H12.8c-7.1,0-12.8-6.4-12.8-14.3v-23.5c0-44.5,17.9-101.6,70-112.2
				c16.8,13.9,32.4,19.8,55.6,19.8s40.9-5.9,55.4-19.5c1.2,0.3,2.4,0.5,3.6,0.9c-12.8,27.9-19.8,61.8-19.8,96.4L164.8,434.4
				L164.8,434.4L164.8,434.4z"/>
			<ellipse class="st0" cx="583.6" cy="210.1" rx="74.5" ry="83.2"/>
			<path class="st0" d="M544.4,434.4c0,7.3-1.9,14.1-5.2,19.8h157.2c7.1,0,12.8-6.4,12.8-14.3v-23.5c0-44.5-17.8-101.6-70-112.2
				c-16.8,13.9-32.4,19.8-55.6,19.8s-41-5.9-55.4-19.5c-1.2,0.3-2.4,0.5-3.6,0.9c12.8,27.9,19.8,61.8,19.8,96.4L544.4,434.4
				L544.4,434.4L544.4,434.4z"/>
		</g>
	</g>
</g>
</svg>
