<?xml version="1.0" encoding="UTF-8"?>
<svg id="Capa_2" data-name="Capa 2" xmlns="http://www.w3.org/2000/svg" viewBox="0 0 15.85 14.19">
  <defs>
    <style>
      .cls-1 {
        fill: #fff;
      }
    </style>
  </defs>
  <g id="Capa_1-2" data-name="Capa 1">
    <path class="cls-1" d="M7.29,13.17c2.32-2.55,4.65-5.12,7.01-7.71,0,.07,.01,.1,.01,.13,0,2.35,0,4.69,0,7.04,0,.8-.65,1.56-1.6,1.56-2.25,0-4.5,0-6.76,0-1.45,0-2.89,0-4.34,0-.76,0-1.35-.45-1.55-1.16-.04-.14-.06-.28-.06-.42C0,9.42,0,6.24,0,3.05c0-.9,.7-1.54,1.42-1.57,.17,0,.33-.03,.5-.03,2.89,0,5.79,0,8.68,0h.25c-1.28,1.41-2.53,2.78-3.79,4.17-.8-.8-1.59-1.59-2.35-2.36-1.24,1.24-2.47,2.47-3.67,3.67,2.05,2.05,4.14,4.14,6.24,6.24Z"/>
    <path class="cls-1" d="M7.12,8.02C9.56,5.33,11.98,2.67,14.41,0c.48,.44,.95,.87,1.44,1.31-2.89,3.18-5.76,6.34-8.63,9.49-1.3-1.31-2.59-2.6-3.87-3.88,.43-.43,.88-.88,1.34-1.33,.79,.8,1.6,1.6,2.43,2.44Z"/>
  </g>
</svg>