<?xml version="1.0" encoding="UTF-8"?><svg id="a" xmlns="http://www.w3.org/2000/svg" viewBox="0 0 94.88 93.52"><defs><style>.b{fill:#fff;}</style></defs><path class="b" d="M.07,35.84C1.97,5.19,38.29-10.98,62.39,8.43c14.65,11.8,18.1,31.08,9.86,47.82-.32.65-1.4,1.95-1.22,2.61l22.11,22.17c5.93,8.06-4.57,16.92-11.68,10.01l-21.29-21.27c-13.91,9.8-32.73,8.94-45.93-1.7C6.18,61.56.71,51.21.07,40.84c-.09-1.49-.09-3.51,0-5ZM35.59,12.56c-11.71.99-21.47,10.94-22.91,22.47-2.62,20.98,19.8,36.25,38.32,25.91,24.14-13.48,13.12-50.79-15.41-48.38Z"/></svg>