<?xml version="1.0" encoding="UTF-8"?><svg id="a" xmlns="http://www.w3.org/2000/svg" viewBox="0 0 359.69 408.84"><defs><style>.b{fill:#fff;}</style></defs><path class="b" d="M234.92,0c9.27,3.05,17.96,7.77,23.31,16.21,1.16,1.83,5.43,11.4,5.43,12.93v18.76h77.05c1.31,0,7.18,3.1,8.64,4.13,17.76,12.47,11.34,39.55-9.51,43.71l-317.75.1c-22.48-1.76-30.24-30.87-11.8-43.81,1.47-1.03,7.34-4.13,8.64-4.13h77.05v-18.76c0-1.54,4.27-11.11,5.43-12.93,5.35-8.44,14.04-13.16,23.31-16.21h110.18ZM239.71,47.91v-12.38c0-3.89-4.13-9.2-7.83-10.54-34.43-1.73-69.66-1.73-104.11,0-3.7,1.34-7.83,6.65-7.83,10.54v12.38h119.77Z"/><path class="b" d="M334.73,119.77l-19.97,245.52c.1,21.68-10.91,41.15-33.89,43.55l-203.63-.04c-17.69-2.83-30.18-16.91-31.54-34.73L24.93,119.77h309.79ZM107.69,144c-13.44.57-11.32,14.74-10.89,24.06,2.76,60.08,8.87,120.17,11.26,180.37,2.03,17.41,23.25,14.74,23.71.1.4-12.54-2.3-28.61-3.03-41.54-2.96-51.94-5.58-104.27-9.97-156.1-2.18-4.19-6.22-7.09-11.08-6.89ZM179.56,144.02c-7.07.17-11.43,6.19-11.69,12.88.65,65.34-1.38,130.98,1.02,196.16,6.06,12.56,22.52,8.29,22.9-5.36-.65-65.34,1.38-130.98-1.02-196.16-2-4.47-6.18-7.64-11.21-7.52ZM252.1,144.14c-7.24-.15-11.55,5.26-12.3,12.04-2.9,50.27-6.02,100.62-8.88,150.81-.73,12.73-3.67,29.95-3,42.13.78,14.07,21.69,16.29,23.67-.69,2.9-50.27,6.02-100.62,8.88-150.81.72-12.74,3.67-29.95,3-42.13-.34-6.04-5.19-11.23-11.38-11.35Z"/></svg>