<?xml version="1.0" encoding="UTF-8"?>
<svg id="Capa_2" data-name="Capa 2" xmlns="http://www.w3.org/2000/svg" viewBox="0 0 276.8 61.51">
  <defs>
    <style>
      .cls-1 {
        fill: #fff;
      }
    </style>
  </defs>
  <g id="Capa_1-2" data-name="Capa 1">
    <g>
      <g>
        <path class="cls-1" d="M47.7,30.61c.8,16.9-11.4,29.5-29.5,29.5H0V1.21H18.2c18.1,0,30.3,11.6,29.5,29.5v-.1ZM6.4,54.31h11.8c14.5,0,23.8-12.1,23-23.7,.8-13.3-8.5-23.6-23-23.6H6.4V54.31Z"/>
        <path class="cls-1" d="M146.7,61.41c-16.9,0-30.7-13.8-30.7-30.7S129.8,0,146.7,0c0,0,9.2-.4,17.8,5.7V14.01s-6.3-8.1-17.8-8.1-24.1,11.3-24.1,24.8,10.7,24.8,24.1,24.8,17.1-7.2,17.7-8v8.3c-8.5,6.1-17.7,5.7-17.7,5.7v-.1Z"/>
        <path class="cls-1" d="M273.6,17.81c0,9.9-5.4,14.1-12.8,15.7l16,23.5-4.9,4-17.9-26.8h-12.2v25.9h-6.5V1.41h17.3c11.2,0,21,3,21,16.4h0Zm-31.9,10.6h10.8c8,0,14.4-2.4,14.4-10.6s-6.5-10.6-14.4-10.6h-10.8V28.41Z"/>
      </g>
      <g>
        <path class="cls-1" d="M82,.81l-25.1,59.6h6.4L82,15.91h0l18.7,44.5h6.4L82,.81Zm-10.8,40.7l10.8-25.6h0l-10.8,25.6Z"/>
        <polygon class="cls-1" points="76.7 54.41 74.2 60.31 102.1 60.41 104.6 54.51 76.7 54.41"/>
      </g>
      <g>
        <path class="cls-1" d="M198.7,.81l-25.1,59.6h6.4l18.7-44.5h0l18.7,44.5h6.4L198.7,.81Zm-10.8,40.7l10.8-25.6h0l-10.8,25.6Z"/>
        <polygon class="cls-1" points="193.4 54.41 190.9 60.31 218.8 60.41 221.3 54.51 193.4 54.41"/>
      </g>
    </g>
  </g>
</svg>