<?xml version="1.0" encoding="UTF-8"?>
<svg id="Capa_1" xmlns="http://www.w3.org/2000/svg" version="1.1" viewBox="0 0 276.8 104.3">
  <!-- Generator: Adobe Illustrator 29.2.1, SVG Export Plug-In . SVG Version: 2.1.0 Build 116)  -->
  <defs>
    <style>
      .st0 {
        fill: #9b7a5a;
      }

      .st1 {
        fill: #c6b19b;
      }
    </style>
  </defs>
  <g>
    <path class="st1" d="M43.8,104.3c-6.8,0-12.3-5.5-12.3-12.3s5.5-12.3,12.3-12.3c0,0,3.7-.2,7.2,2.3v3.3s-2.5-3.3-7.2-3.3-9.7,4.6-9.7,10,4.3,10,9.7,10,6.9-2.9,7.1-3.2v3.3c-3.4,2.4-7.1,2.3-7.1,2.3Z"/>
    <path class="st1" d="M70,98.5h-10.6l-2.2,5.2h-2.6l10.1-24,10.1,24h-2.6l-2.2-5.2ZM64.6,85.9l-4.3,10.3h8.7l-4.4-10.3Z"/>
    <path class="st1" d="M94.8,86.8c0,4-2.2,5.7-5.1,6.3l6.4,9.4-2,1.6-7.2-10.8h-4.9v10.4h-2.6v-23.6h7c4.5,0,8.4,1.2,8.4,6.6ZM82,91h4.4c3.2,0,5.8-1,5.8-4.3s-2.6-4.3-5.8-4.3h-4.4v8.5Z"/>
    <path class="st1" d="M115.6,87.4c0,4.9-3.1,7.3-8.6,7.3h-3.7v9h-2.6v-23.6h6.3c5.4,0,8.6,2.5,8.6,7.3ZM103.3,92.4h3.7c3.8,0,5.9-1.7,5.9-4.9s-2.1-4.9-5.9-4.9h-3.7v9.8Z"/>
    <path class="st1" d="M120.2,80.6l2.6-.8v23.9h-2.6v-23.1Z"/>
    <path class="st1" d="M131.9,86.1v17.7h-2.6v-24l17.4,18.2v-17.3l2.6-.8v24.2l-17.4-18.1Z"/>
    <path class="st1" d="M164.8,82.5v21.3h-2.6v-21.3h-8.1l.8-2.3h18l-.8,2.3h-7.3Z"/>
    <path class="st1" d="M192.3,101.4l-.8,2.3h-13.7v-23.7h14.5l-.8,2.3h-11.1v8.4h9.8l-.8,2.3h-9v8.3h11.9Z"/>
    <path class="st1" d="M212,86.8c0,4-2.2,5.7-5.1,6.3l6.4,9.4-2,1.6-7.2-10.8h-4.9v10.4h-2.6v-23.6h7c4.5,0,8.4,1.2,8.4,6.6ZM199.2,91h4.4c3.2,0,5.8-1,5.8-4.3s-2.6-4.3-5.8-4.3h-4.4v8.5Z"/>
    <path class="st1" d="M218,80.6l2.6-.8v23.9h-2.6v-23.1Z"/>
    <path class="st1" d="M240.6,98.5h-10.6l-2.2,5.2h-2.6l10.1-24,10.1,24h-2.6l-2.2-5.2ZM235.2,85.9l-4.3,10.3h8.7l-4.4-10.3Z"/>
  </g>
  <g>
    <g>
      <path class="st0" d="M47.7,30.6c.8,16.9-11.4,29.5-29.5,29.5H0V1.2h18.2c18.1,0,30.3,11.6,29.5,29.5ZM6.4,54.3h11.8c14.5,0,23.8-12.1,23-23.7.8-13.3-8.5-23.6-23-23.6H6.4v47.4Z"/>
      <path class="st0" d="M146.7,61.4c-16.9,0-30.7-13.8-30.7-30.7S129.8,0,146.7,0c0,0,9.2-.4,17.8,5.7v8.3s-6.3-8.1-17.8-8.1-24.1,11.3-24.1,24.8,10.7,24.8,24.1,24.8,17.1-7.2,17.7-8v8.3c-8.5,6.1-17.7,5.7-17.7,5.7Z"/>
      <path class="st0" d="M273.6,17.8c0,9.9-5.4,14.1-12.8,15.7l16,23.5-4.9,4-17.9-26.8h-12.2v25.9h-6.5V1.4h17.3c11.2,0,21,3,21,16.4ZM241.7,28.4h10.8c8,0,14.4-2.4,14.4-10.6s-6.5-10.6-14.4-10.6h-10.8v21.2Z"/>
    </g>
    <g>
      <path class="st0" d="M82,.8l-25.1,59.6h6.4l18.7-44.5h0l18.7,44.5h6.4L82,.8ZM71.2,41.5l10.8-25.6h0l-10.8,25.6Z"/>
      <polygon class="st0" points="76.7 54.4 74.2 60.3 102.1 60.4 104.6 54.5 76.7 54.4"/>
    </g>
    <g>
      <path class="st0" d="M198.7.8l-25.1,59.6h6.4l18.7-44.5h0l18.7,44.5h6.4L198.7.8ZM187.9,41.5l10.8-25.6h0l-10.8,25.6Z"/>
      <polygon class="st0" points="193.4 54.4 190.9 60.3 218.8 60.4 221.3 54.5 193.4 54.4"/>
    </g>
  </g>
</svg>