<?xml version="1.0" encoding="utf-8"?>
<!-- Generator: Adobe Illustrator 26.5.0, SVG Export Plug-In . SVG Version: 6.00 Build 0)  -->
<svg version="1.1" id="Capa_1" xmlns="http://www.w3.org/2000/svg" xmlns:xlink="http://www.w3.org/1999/xlink" x="0px" y="0px"
	 viewBox="0 0 31.9 32" style="enable-background:new 0 0 31.9 32;" xml:space="preserve">
<style type="text/css">
	.st0{fill:#C6B19B;}
	.st1{fill:#9B7A5A;}
	.st2{fill:#FFFFFF;}
</style>
<g>
	<path class="st0" d="M96.1,128.1c-6.8,0-12.3-5.5-12.3-12.3s5.5-12.3,12.3-12.3c0,0,3.7-0.2,7.2,2.3v3.3c0,0-2.5-3.3-7.2-3.3
		c-4.7,0-9.7,4.6-9.7,10s4.3,10,9.7,10c5.4,0,6.9-2.9,7.1-3.2v3.3c-3.4,2.4-7.1,2.3-7.1,2.3V128.1z"/>
	<path class="st0" d="M122.3,122.3h-10.6l-2.2,5.2h-2.6l10.1-24l10.1,24h-2.6C124.5,127.5,122.3,122.3,122.3,122.3z M116.9,109.7
		l-4.3,10.3h8.7L116.9,109.7z"/>
	<path class="st0" d="M147.1,110.6c0,4-2.2,5.7-5.1,6.3l6.4,9.4l-2,1.6l-7.2-10.8h-4.9v10.4h-2.6v-23.6h7
		C143.2,103.9,147.1,105.1,147.1,110.6L147.1,110.6z M134.3,114.8h4.4c3.2,0,5.8-1,5.8-4.3s-2.6-4.3-5.8-4.3h-4.4v8.5V114.8z"/>
	<path class="st0" d="M167.9,111.2c0,4.9-3.1,7.3-8.6,7.3h-3.7v9H153v-23.6h6.3C164.7,103.9,167.9,106.4,167.9,111.2z M155.6,116.2
		h3.7c3.8,0,5.9-1.7,5.9-4.9s-2.1-4.9-5.9-4.9h-3.7V116.2z"/>
	<path class="st0" d="M172.5,104.4l2.6-0.8v23.9h-2.6V104.4z"/>
	<path class="st0" d="M184.2,109.9v17.7h-2.6v-24l17.4,18.2v-17.3l2.6-0.8v24.2l-17.4-18.1V109.9z"/>
	<path class="st0" d="M217.1,106.3v21.3h-2.6v-21.3h-8.1l0.8-2.3h18l-0.8,2.3H217.1L217.1,106.3z"/>
	<path class="st0" d="M244.6,125.2l-0.8,2.3h-13.7v-23.7h14.5l-0.8,2.3h-11.1v8.4h9.8l-0.8,2.3h-9v8.3L244.6,125.2L244.6,125.2z"/>
	<path class="st0" d="M264.3,110.6c0,4-2.2,5.7-5.1,6.3l6.4,9.4l-2,1.6l-7.2-10.8h-4.9v10.4h-2.6v-23.6h7
		C260.4,103.9,264.3,105.1,264.3,110.6L264.3,110.6z M251.5,114.8h4.4c3.2,0,5.8-1,5.8-4.3s-2.6-4.3-5.8-4.3h-4.4v8.5V114.8z"/>
	<path class="st0" d="M270.3,104.4l2.6-0.8v23.9h-2.6V104.4z"/>
	<path class="st0" d="M292.9,122.3h-10.6l-2.2,5.2h-2.6l10.1-24l10.1,24h-2.6L292.9,122.3z M287.5,109.7l-4.3,10.3h8.7L287.5,109.7z
		"/>
</g>
<rect class="st1" width="32" height="32"/>
<g>
	<g>
		<path class="st2" d="M24.6,16c0.3,5.8-3.9,10.1-10.1,10.1H8.2V5.9h6.2C20.7,5.9,24.8,9.9,24.6,16L24.6,16z M10.4,24.1h4
			c5,0,8.1-4.1,7.9-8.1c0.3-4.6-2.9-8.1-7.9-8.1h-4V24.1L10.4,24.1z"/>
		<path class="st2" d="M67,28.1c-6.7,0-12.2-5.5-12.2-12.2S60.3,3.8,67,3.8c0,0,3.6-0.2,7.1,2.3v3.3c0,0-2.5-3.2-7.1-3.2
			s-9.5,4.5-9.5,9.8s4.2,9.8,9.5,9.8s6.8-2.9,7-3.2v3.3C70.7,28.3,67,28.2,67,28.1L67,28.1z"/>
		<path class="st2" d="M117.3,10.9c0,3.9-2.1,5.6-5.1,6.2l6.3,9.3l-1.9,1.6l-7.1-10.6h-4.8v10.3h-2.6V4.4h6.9
			C113.4,4.4,117.3,5.6,117.3,10.9L117.3,10.9z M104.7,15.1h4.3c3.2,0,5.7-1,5.7-4.2s-2.6-4.2-5.7-4.2h-4.3V15.1z"/>
	</g>
	<g>
		<path class="st2" d="M42.7,4.2l-9.9,23.6h2.5l7.4-17.6l0,0l7.4,17.6h2.5L42.7,4.2z M38.4,20.3l4.3-10.1l0,0L38.4,20.3z"/>
		<polygon class="st2" points="40.6,25.4 39.6,27.8 50.6,27.8 51.6,25.5 		"/>
	</g>
	<g>
		<path class="st2" d="M88.9,4.2L79,27.8h2.5l7.4-17.6l0,0l7.4,17.6h2.5L88.9,4.2z M84.6,20.3l4.3-10.1l0,0L84.6,20.3z"/>
		<polygon class="st2" points="86.8,25.4 85.8,27.8 96.9,27.8 97.9,25.5 		"/>
	</g>
</g>
</svg>
